<?xml version="1.0" encoding="UTF-8"?>
<svg id="Layer_1" data-name="Layer 1" xmlns="http://www.w3.org/2000/svg" viewBox="0 0 1747.46 573.64">
  <defs>
    <style>
      .cls-1 {
        fill: #3281ba;
      }

      .cls-2 {
        fill: #13446b;
      }
    </style>
  </defs>
  <g>
    <path class="cls-2" d="M1423.79,80.36c13.05,2.12,42.57-4.53,51.59,3.5l55.04,117.21v-120.71h42.65v205.92c-12.07-1.84-35.79,4.22-44.48-3.5l-62.15-127.86v131.36h-42.65V80.36Z"/>
    <path class="cls-2" d="M887.07,80.36l2.81,13.03,54.06,118.33V80.36h39.1v205.92c-12.07-1.84-35.79,4.22-44.48-3.5l-62.15-127.86v131.36h-42.65V80.36h53.32Z"/>
    <path class="cls-2" d="M613.73,140.36c-4.84-4.16,2.41-31.58-30.55-31.64-30.74-.06-38.36,32.2-8.53,47.61,35.67,18.42,83.99,15.63,85.06,71.54,1.65,86.23-161.77,83-149.42-9.06,9.32,1.66,32.79-3.1,39.34,1.57,4.18,2.98,3.54,16.71,8.62,23.34,5.2,6.79,14.51,5.27,18.39,14.27,23.41,1.74,51.67-25.18,32.27-45.38-20.56-21.41-82.45-13.82-93.52-61-21.77-92.81,125.64-104.32,136.34-29.54,1.33,9.28,3.16,16.56-8.12,18.64-4.08.75-28.74.62-29.87-.35Z"/>
    <path class="cls-2" d="M1740.15,140.71c-6.6-1.13-37.15,1.68-38.97-.15-.87-.88.49-15.19-7.09-23.1-24.96-26-69.55,10.07-40.53,33.4,30.93,24.87,96.04,14.44,93.84,80.27-2.6,78.2-145.8,81.45-147.97-1.7-.08-3.18-2.75-6.14,1.92-8.98,4.67-2.84,35.51-3,39.51-.11,7.42,5.37-3.91,30.5,26.77,33.89,21.14,2.34,44.31-11.78,34.33-34.49-10.29-23.4-73.38-21.16-92.86-56.43-15.03-27.22-4.1-67.7,24.36-81.23,48.83-23.23,109.67-1.78,106.7,58.63Z"/>
    <polygon class="cls-2" points="808.88 80.36 808.88 115.86 723.57 115.86 723.57 162.02 798.21 162.02 798.21 193.97 723.57 193.97 723.57 250.77 808.88 250.77 808.88 286.28 680.92 286.28 680.92 80.36 808.88 80.36"/>
    <polygon class="cls-2" points="1395.36 80.36 1395.36 115.86 1313.61 115.86 1313.61 162.02 1388.25 162.02 1388.25 193.97 1313.61 193.97 1313.61 250.77 1395.36 250.77 1395.36 286.28 1270.95 286.28 1270.95 80.36 1395.36 80.36"/>
    <polygon class="cls-2" points="1157.21 80.36 1157.21 115.86 1107.45 115.86 1107.45 286.28 1064.8 286.28 1064.8 115.86 1011.48 115.86 1011.48 80.36 1157.21 80.36"/>
    <path class="cls-2" d="M1231.85,76.81v209.47h-42.65V82.13c0-8.44,35.07-4.63,42.65-5.33Z"/>
    <path class="cls-2" d="M929.73,353.73l31.52.47,28.91,63.44v-63.9h24.88v120.71c-8.92-.63-19.62,2.83-26.7-3.51l-33.73-71.05v62.13c0,1.02,3.79,3.69,3.25,6.69-1.5,8.49-21.05,5.4-28.14,5.73v-120.71Z"/>
    <path class="cls-2" d="M1055.33,362.02c19.05-19.03,58.57-15.27,72.91,8.22,13.42,21.99,12.23,86.07-12.4,100.16-20.68,11.84-51.62,9.11-64.73-12.48-11.71-19.27-12.68-79.03,4.21-95.9ZM1088.45,372.25c-25.94,2.43-18.89,73.55-9.49,79.17,35.96,21.51,40.24-82.05,9.49-79.17Z"/>
    <path class="cls-2" d="M1287.69,350.93c23.92-5.42,53.7,7.2,57.68,33.2,1.8,11.76,1.88,55.16-1.35,65.64-11.38,36.94-79.93,36.72-87.05-9.3-4.5-29.13-5.28-81.39,30.72-89.55ZM1298.36,371.88c-19.14,4.86-16.59,69.22-7.95,77.78,34.47,34.13,42.42-86.53,7.95-77.78Z"/>
    <path class="cls-2" d="M1459.35,392.77c-7.61-1.32-19.83,1.99-26.25.24-1.82-.5-6.77-28.4-27.13-16.26-10.43,6.23-9.28,64.2-2.63,71.92,10.64,12.37,33.05.99,31.12-16.8-22.59,2.37-18.08-1.01-17.79-21.36h42.69c3.46,30.45-2.03,63.61-38.36,66.74-49.45,4.27-54.82-45.1-50.53-82.71,6.76-59.23,85.66-61.42,88.88-1.78Z"/>
    <path class="cls-2" d="M1721.26,361.92c5.57,6.29,8.89,18.94,8.24,27.3-35.01,6.42-18.6.94-30.12-10.71-8.63-8.73-28.26-.95-26.57,8.54,2.88,16.18,61.95,14.06,60.01,53.37-2.49,50.51-92.15,49.02-88.66-5.02,7.58,1.34,19.9-2,26.25-.24,2.73.76,4.57,27.27,27.05,16.2,31.4-15.46-37.29-34-44.22-44.57-28.4-43.37,39.72-76.81,68.01-44.87Z"/>
    <polygon class="cls-2" points="815.98 353.73 840.88 353.71 842.91 399.95 872.87 399.9 872.84 353.71 897.74 353.73 897.74 474.44 872.86 474.44 872.86 421.19 840.87 421.19 840.87 474.44 815.98 474.44 815.98 353.73"/>
    <polygon class="cls-2" points="684.47 353.73 684.47 375.03 634.71 375.03 634.69 399.9 677.42 401.92 677.38 421.2 634.69 421.17 634.71 453.14 684.47 453.14 684.47 474.44 606.27 474.44 606.27 353.73 684.47 353.73"/>
    <polygon class="cls-2" points="1622.84 353.73 1622.84 375.03 1573.08 375.03 1573.06 399.9 1615.8 401.92 1615.75 421.2 1573.06 421.17 1573.08 453.14 1622.84 453.14 1622.84 474.44 1544.65 474.44 1544.65 353.73 1622.84 353.73"/>
    <path class="cls-2" d="M791.12,399.9c-5.49-1.05-21.98,1.84-24.55-.37-2.14-1.84-.81-21.05-9.72-24.11-40.9-14.05-33.3,102.79,3.55,74.46,7.02-5.4,2.33-21.49,30.72-14.48,5.1,39.82-51.04,55.08-74.73,30.24-17.03-17.86-18.31-66.15-9.65-87.9,19.05-47.87,93.02-31.58,84.39,22.16Z"/>
    <polygon class="cls-2" points="592.05 353.73 592.07 375.05 560.06 375.03 560.06 474.44 531.63 474.44 531.63 375.03 506.73 375.05 506.75 353.73 592.05 353.73"/>
    <polygon class="cls-2" points="1189.2 357.28 1189.2 453.14 1235.43 453.12 1235.41 474.44 1164.32 474.44 1164.32 357.28 1189.2 357.28"/>
    <rect class="cls-2" x="1484.22" y="353.73" width="28.44" height="120.71"/>
  </g>
  <g>
    <polygon class="cls-2" points="208.22 0 0 355.04 272.23 573.64 414.32 338.8 208.22 0"/>
    <polygon class="cls-1" points="36.41 384.28 330.1 200.36 414.32 338.8 272.23 573.64 36.41 384.28"/>
  </g>
</svg>